<?xml version="1.0" encoding="UTF-8" standalone="no"?><!DOCTYPE svg PUBLIC "-//W3C//DTD SVG 1.1//EN" "http://www.w3.org/Graphics/SVG/1.1/DTD/svg11.dtd"><svg width="100%" height="100%" viewBox="0 0 668 222" version="1.1" xmlns="http://www.w3.org/2000/svg" xmlns:xlink="http://www.w3.org/1999/xlink" xml:space="preserve" xmlns:serif="http://www.serif.com/" style="fill-rule:evenodd;clip-rule:evenodd;stroke-linejoin:round;stroke-miterlimit:2;"><rect id="ArtBoard3" x="0" y="0" width="667.158" height="221.659" style="fill:none;"/><path d="M195.845,170.979c-18.278,23.946 -47.115,39.406 -79.534,39.406c-55.192,0 -100,-44.808 -100,-100c-0,-55.191 44.808,-100 100,-100c32.486,0 61.374,15.524 79.643,39.55l427.082,-0c16.702,-0 30.261,13.559 30.261,30.261l0,60.522c0,16.701 -13.559,30.261 -30.261,30.261l-427.191,0Z" style="fill:#fff;"/><path d="M198.521,176.479l424.515,0c19.737,0 35.761,-16.024 35.761,-35.761c0,-0 0,-60.522 0,-60.522c0,-19.737 -16.024,-35.761 -35.761,-35.761l-424.4,-0c-19.338,-24.106 -49.043,-39.55 -82.325,-39.55c-58.227,0 -105.5,47.273 -105.5,105.5c-0,58.227 47.273,105.5 105.5,105.5c33.215,0 62.866,-15.38 82.21,-39.406Zm-2.676,-5.5c-18.278,23.946 -47.115,39.406 -79.534,39.406c-55.192,0 -100,-44.808 -100,-100c-0,-55.191 44.808,-100 100,-100c32.486,0 61.374,15.524 79.643,39.55l427.082,-0c16.702,-0 30.261,13.559 30.261,30.261l0,60.522c0,16.701 -13.559,30.261 -30.261,30.261l-427.191,0Z" style="fill:#d9d9d9;"/><path d="M195.845,170.979c-18.278,23.946 -47.115,39.406 -79.534,39.406c-55.192,0 -100,-44.808 -100,-100c-0,-55.191 44.808,-100 100,-100c32.486,0 61.374,15.524 79.643,39.55l427.082,-0c16.702,-0 30.261,13.559 30.261,30.261l0,60.522c0,16.701 -13.559,30.261 -30.261,30.261l-427.191,0Z" style="fill:#fff;"/><path d="M198.521,176.479l424.515,0c19.737,0 35.761,-16.024 35.761,-35.761c0,-0 0,-60.522 0,-60.522c0,-19.737 -16.024,-35.761 -35.761,-35.761l-424.4,-0c-19.338,-24.106 -49.043,-39.55 -82.325,-39.55c-58.227,0 -105.5,47.273 -105.5,105.5c-0,58.227 47.273,105.5 105.5,105.5c33.215,0 62.866,-15.38 82.21,-39.406Zm-2.676,-5.5c-18.278,23.946 -47.115,39.406 -79.534,39.406c-55.192,0 -100,-44.808 -100,-100c-0,-55.191 44.808,-100 100,-100c32.486,0 61.374,15.524 79.643,39.55l427.082,-0c16.702,-0 30.261,13.559 30.261,30.261l0,60.522c0,16.701 -13.559,30.261 -30.261,30.261l-427.191,0Z" style="fill:#d9d9d9;"/><g><path d="M74.138,113.1c-7.853,-2.083 -27.766,9.3 -29.87,17.076c-2.104,7.775 9.393,27.492 17.245,29.576c7.853,2.083 27.767,-9.301 29.871,-17.076c2.104,-7.775 -9.393,-27.493 -17.246,-29.576Z"/><path d="M92.96,41.217c-7.853,-2.084 -27.767,9.3 -29.871,17.076c-2.104,7.775 9.393,27.492 17.246,29.576c7.853,2.083 27.766,-9.301 29.87,-17.076c2.105,-7.775 -9.393,-27.493 -17.245,-29.576Z"/><path d="M119.691,87.06c-7.853,-2.084 -27.767,9.3 -29.871,17.075c-2.104,7.776 9.393,27.493 17.246,29.576c7.853,2.084 27.766,-9.3 29.87,-17.075c2.104,-7.776 -9.393,-27.493 -17.245,-29.576Z"/><path d="M146.421,132.902c-7.852,-2.083 -27.766,9.301 -29.87,17.076c-2.104,7.775 9.393,27.493 17.246,29.576c7.852,2.083 27.766,-9.3 29.87,-17.076c2.104,-7.775 -9.393,-27.492 -17.246,-29.576Z"/><path d="M165.243,61.019c-7.853,-2.083 -27.766,9.301 -29.87,17.076c-2.105,7.775 9.393,27.492 17.245,29.576c7.853,2.083 27.767,-9.301 29.871,-17.076c2.104,-7.775 -9.393,-27.492 -17.246,-29.576Z"/></g><path d="M230.753,18.75c0.016,0 0.023,0.008 0.023,0.023l0.024,0c-0,0 0.008,-0.007 0.023,-0.023c1.344,0 2.563,0.5 3.656,1.5c0.563,0.609 0.961,1.172 1.196,1.688c0.359,0.812 0.539,1.593 0.539,2.343l-0,0.282c-0,1.437 -0.547,2.75 -1.641,3.937c-1.109,1.063 -2.414,1.594 -3.914,1.594c-1.531,-0 -2.758,-0.625 -3.68,-1.875c0,-0.016 -0.007,-0.039 -0.023,-0.071l0,6.868c-0.016,-0 -0.031,0.015 -0.047,0.047l-1.57,-0c-0,-0.016 -0.016,-0.032 -0.047,-0.047l-0,-15.985l1.664,0l0,1.688c0.859,-1.313 2.125,-1.969 3.797,-1.969Zm-3.703,5.695l-0,0.118c-0,0.937 0.344,1.843 1.031,2.718c0.688,0.782 1.539,1.172 2.555,1.172c1.562,0 2.726,-0.711 3.492,-2.133c0.297,-0.609 0.445,-1.218 0.445,-1.828l0,-0.164c0,-1.078 -0.414,-2.039 -1.242,-2.883c-0.734,-0.687 -1.57,-1.031 -2.508,-1.031c-1.687,0 -2.851,0.82 -3.492,2.461c-0.187,0.5 -0.281,1.023 -0.281,1.57Z" style="fill-rule:nonzero;"/><path d="M244.82,18.773l0.305,0c1.203,0 2.344,0.469 3.422,1.407c1.234,1.187 1.851,2.609 1.851,4.265c0,1.672 -0.648,3.118 -1.945,4.336c-1.063,0.875 -2.219,1.313 -3.469,1.313c-1.359,-0 -2.586,-0.5 -3.68,-1.5c-1.156,-1.188 -1.734,-2.555 -1.734,-4.102l0,-0.117c0,-1.547 0.578,-2.914 1.734,-4.102c1.094,-1 2.266,-1.5 3.516,-1.5Zm-3.609,5.672l-0,0.047c-0,1.11 0.414,2.086 1.242,2.93c0.75,0.703 1.594,1.055 2.531,1.055c1.172,-0 2.172,-0.547 3,-1.641c0.5,-0.766 0.75,-1.563 0.75,-2.391c0,-1.187 -0.437,-2.211 -1.312,-3.07c-0.735,-0.625 -1.524,-0.937 -2.368,-0.937l-0.187,-0c-0.922,-0 -1.789,0.398 -2.602,1.195c-0.703,0.828 -1.054,1.765 -1.054,2.812Z" style="fill-rule:nonzero;"/><path d="M255.067,18.867c0.016,0 0.141,0.344 0.375,1.031c0.562,1.688 1.414,4.211 2.555,7.571l0.023,-0c0.484,-1.422 1.438,-4.281 2.859,-8.578l0,-0.024l1.196,0c0.031,0 0.172,0.399 0.422,1.196c0.297,0.89 1.109,3.359 2.437,7.406l0.024,-0c0.5,-1.422 1.476,-4.289 2.929,-8.602l1.758,0c0.016,0 0.031,0.016 0.047,0.047c-0.641,1.844 -1.922,5.539 -3.844,11.086l-1.781,0c-0.031,0 -0.242,-0.633 -0.633,-1.898c-0.437,-1.297 -1.086,-3.25 -1.945,-5.86l-0.024,0c-0.421,1.297 -1.273,3.883 -2.554,7.758l-1.758,0c-0.063,-0.078 -0.227,-0.523 -0.492,-1.336c-0.75,-2.172 -1.875,-5.43 -3.375,-9.773l-0,-0.024l1.781,0Z" style="fill-rule:nonzero;"/><path d="M277.619,18.75c1.609,0 2.992,0.719 4.148,2.156c0.766,1.11 1.148,2.196 1.148,3.258l0,0.141c0,0.359 -0.023,0.539 -0.07,0.539l-8.906,-0c-0,0.375 0.156,0.906 0.469,1.594c0.468,0.875 1.148,1.476 2.039,1.804c0.422,0.156 0.804,0.235 1.148,0.235c1.063,-0 1.992,-0.469 2.789,-1.407c0.266,-0.375 0.438,-0.679 0.516,-0.914l0.047,0c0.625,0.25 1.117,0.469 1.476,0.657c-0.172,0.484 -0.554,1.054 -1.148,1.71c-1.078,1.047 -2.305,1.571 -3.68,1.571c-1.625,-0 -3.016,-0.711 -4.172,-2.133c-0.765,-1.078 -1.148,-2.234 -1.148,-3.469l-0,-0.094c-0,-1.562 0.562,-2.929 1.687,-4.101c1.047,-1.031 2.266,-1.547 3.657,-1.547Zm-3.516,4.477l7.008,-0c-0.328,-1.032 -0.883,-1.782 -1.664,-2.25c-0.563,-0.375 -1.18,-0.563 -1.852,-0.563c-1.141,0 -2.117,0.531 -2.93,1.594c-0.25,0.375 -0.437,0.781 -0.562,1.219Z" style="fill-rule:nonzero;"/><path d="M291.522,18.773c0.828,0 1.554,0.188 2.179,0.563c-0.078,0.391 -0.203,0.977 -0.375,1.758c-0.703,-0.422 -1.343,-0.633 -1.922,-0.633c-1.296,-0 -2.21,0.609 -2.742,1.828c-0.109,0.281 -0.164,0.57 -0.164,0.867l0,6.821c-0.015,-0 -0.031,0.007 -0.047,0.023l-1.57,0c0,0 -0.016,-0.008 -0.047,-0.023l0,-10.946c0.016,0 0.031,-0.008 0.047,-0.023l1.57,-0c0,-0 0.016,0.008 0.047,0.023l0,0.961c0.344,-0.469 0.852,-0.804 1.524,-1.008c0.5,-0.14 1,-0.211 1.5,-0.211Z" style="fill-rule:nonzero;"/><path d="M301.44,18.75c1.61,0 2.993,0.719 4.149,2.156c0.765,1.11 1.148,2.196 1.148,3.258l0,0.141c0,0.359 -0.023,0.539 -0.07,0.539l-8.906,-0c-0,0.375 0.156,0.906 0.468,1.594c0.469,0.875 1.149,1.476 2.04,1.804c0.421,0.156 0.804,0.235 1.148,0.235c1.062,-0 1.992,-0.469 2.789,-1.407c0.266,-0.375 0.438,-0.679 0.516,-0.914l0.047,0c0.625,0.25 1.117,0.469 1.476,0.657c-0.172,0.484 -0.555,1.054 -1.148,1.71c-1.078,1.047 -2.305,1.571 -3.68,1.571c-1.625,-0 -3.016,-0.711 -4.172,-2.133c-0.766,-1.078 -1.148,-2.234 -1.148,-3.469l-0,-0.094c-0,-1.562 0.562,-2.929 1.687,-4.101c1.047,-1.031 2.266,-1.547 3.656,-1.547Zm-3.515,4.477l7.008,-0c-0.329,-1.032 -0.883,-1.782 -1.664,-2.25c-0.563,-0.375 -1.18,-0.563 -1.852,-0.563c-1.141,0 -2.117,0.531 -2.93,1.594c-0.25,0.375 -0.437,0.781 -0.562,1.219Z" style="fill-rule:nonzero;"/><path d="M319.281,12.844l1.594,-0c-0,-0 0.008,0.008 0.023,0.023l0,17.11c0,-0 -0.008,0.007 -0.023,0.023l-1.594,0l0,-1.852l-0.023,0c-0.844,1.297 -2.118,1.946 -3.821,1.946l-0.023,-0c-1.516,-0 -2.844,-0.602 -3.985,-1.805c-0.953,-1.156 -1.429,-2.422 -1.429,-3.797l-0,-0.117c-0,-1.484 0.531,-2.797 1.594,-3.937c1.109,-1.125 2.421,-1.688 3.937,-1.688c1.547,0 2.773,0.633 3.68,1.898c0.015,0.016 0.031,0.04 0.047,0.071l0.023,-0l0,-7.875Zm-7.641,11.531l0,0.07c0,1.313 0.524,2.391 1.571,3.235c0.656,0.515 1.39,0.773 2.203,0.773c1.687,0 2.851,-0.828 3.492,-2.484c0.188,-0.5 0.281,-0.992 0.281,-1.477l0,-0.234c0,-0.688 -0.218,-1.399 -0.656,-2.133c-0.734,-1.141 -1.711,-1.711 -2.93,-1.711c-1.672,0 -2.882,0.781 -3.632,2.344c-0.219,0.562 -0.329,1.101 -0.329,1.617Z" style="fill-rule:nonzero;"/><path d="M332.861,12.844l1.57,-0c0,-0 0.016,0.008 0.047,0.023l-0,7.852c0.094,-0.235 0.422,-0.594 0.984,-1.078c0.797,-0.594 1.703,-0.891 2.719,-0.891c1.906,0 3.438,0.82 4.594,2.461c0.64,1 0.961,2.031 0.961,3.094l-0,0.258c-0,1.421 -0.532,2.726 -1.594,3.914c-0.563,0.515 -1.078,0.882 -1.547,1.101c-0.766,0.344 -1.516,0.516 -2.25,0.516l-0.07,-0c-1.688,-0 -2.953,-0.649 -3.797,-1.946l-0,1.829c-0.016,-0 -0.031,0.007 -0.047,0.023l-1.57,0c-0,0 -0.016,-0.008 -0.047,-0.023l-0,-17.11c0.015,0 0.031,-0.008 0.047,-0.023Zm1.711,11.461l-0,0.14c-0,1.344 0.515,2.453 1.547,3.328c0.609,0.454 1.359,0.68 2.25,0.68c1.234,0 2.265,-0.586 3.093,-1.758c0.422,-0.734 0.633,-1.453 0.633,-2.156l0,-0.187c0,-1.172 -0.476,-2.196 -1.43,-3.071c-0.687,-0.578 -1.523,-0.867 -2.507,-0.867c-1.454,0 -2.539,0.766 -3.258,2.297c-0.219,0.578 -0.328,1.109 -0.328,1.594Z" style="fill-rule:nonzero;"/><path d="M348.287,18.867c0.016,0 0.196,0.406 0.539,1.219c0.703,1.687 1.766,4.219 3.188,7.594c0.015,-0.032 0.469,-1.071 1.359,-3.117c1.61,-3.797 2.422,-5.696 2.438,-5.696l1.781,0c-1.047,2.422 -3.125,7.266 -6.234,14.531c-0.125,0.282 -0.368,0.836 -0.727,1.665l-1.758,-0l0,-0.024c0.375,-0.875 1.117,-2.625 2.227,-5.25c-0.766,-1.828 -2.321,-5.469 -4.664,-10.922l1.851,0Z" style="fill-rule:nonzero;"/><path d="M225.478,76.763l22.338,0c7.198,0 13.31,2.7 18.337,8.098c3.598,4.344 5.398,9.122 5.398,14.334c-0,6.763 -2.854,12.565 -8.563,17.405c-4.53,3.351 -9.618,5.026 -15.265,5.026l-13.496,0l0,23.176c0,0 -0.031,0.031 -0.093,0.093l-8.656,0c-0.062,0 -0.124,-0.031 -0.186,-0.093l-0,-67.945c-0,-0 0.062,-0.031 0.186,-0.094Zm8.749,9.029l0,26.806l14.055,-0c4.468,-0 8.315,-1.862 11.541,-5.585c1.8,-2.482 2.7,-4.995 2.7,-7.539l-0,-0.651c-0,-4.034 -1.955,-7.509 -5.864,-10.425c-2.42,-1.799 -5.771,-2.699 -10.053,-2.699l-12.193,-0c-0.062,-0 -0.124,0.031 -0.186,0.093Z" style="fill-rule:nonzero;"/><path d="M294.373,76.763c3.165,4.406 9.463,13.186 18.895,26.341c1.179,-1.551 7.446,-10.331 18.801,-26.341l11.542,0l-0,0.094c-3.971,5.522 -11.945,16.474 -23.921,32.856c4.22,5.832 12.721,17.529 25.503,35.089l0,0.093l-11.355,0c-0.31,-0.31 -5.368,-7.353 -15.172,-21.128c-3.475,-4.778 -5.243,-7.26 -5.305,-7.446c-3.475,4.778 -10.332,14.303 -20.57,28.574l-11.355,0c-0,0 -0.031,-0.031 -0.093,-0.093c4.095,-5.646 12.348,-16.94 24.758,-33.879c0.124,-0.187 0.403,-0.559 0.838,-1.117c-3.972,-5.523 -11.976,-16.537 -24.014,-33.043l11.448,0Z" style="fill-rule:nonzero;"/><path d="M360.29,76.763l9.029,0l-0,59.197l29.505,0l-0,8.935l-38.534,0l0,-68.132Z" style="fill-rule:nonzero;"/><path d="M416.992,76.763c0.124,0 0.404,0.993 0.838,2.979c0.558,1.675 4.623,16.195 12.193,43.56c0.31,0.93 0.714,2.389 1.21,4.374l0.093,0c2.792,-7.942 8.377,-23.734 16.754,-47.376c0.744,-2.233 1.21,-3.412 1.396,-3.537l6.05,0c0.124,0 0.496,1.024 1.117,3.072c3.785,10.611 9.463,26.558 17.033,47.841c2.358,-8.501 7.074,-25.472 14.147,-50.913l9.774,0c-3.103,11.046 -9.37,33.043 -18.802,65.992c-0.372,1.427 -0.589,2.14 -0.651,2.14l-7.819,0c-0.186,-0.186 -2.048,-5.367 -5.584,-15.543c-0.869,-2.296 -4.934,-13.776 -12.193,-34.439c-0.249,0.311 -0.807,1.8 -1.676,4.468c-3.599,10.114 -8.997,25.286 -16.195,45.514l-7.819,0c-0.062,0 -0.465,-1.365 -1.21,-4.095c-4.095,-14.21 -10.207,-35.555 -18.336,-64.037l9.68,0Z" style="fill-rule:nonzero;"/><path d="M513.438,76.763l22.339,0c7.197,0 13.309,2.7 18.336,8.098c3.599,4.344 5.398,9.122 5.398,14.334c0,6.391 -2.575,11.914 -7.725,16.568c-2.731,2.233 -5.12,3.661 -7.167,4.281c-0,0.186 3.009,5.461 9.028,15.823c1.179,1.986 2.917,4.964 5.212,8.935l0,0.093l-10.61,0c-0.124,0 -0.962,-1.489 -2.513,-4.467c-6.64,-11.604 -10.177,-17.871 -10.611,-18.802l-12.938,0l0,23.176c0,0 -0.031,0.031 -0.093,0.093l-8.656,0c-0.062,0 -0.124,-0.031 -0.186,-0.093l-0,-67.945c-0,-0 0.062,-0.031 0.186,-0.094Zm8.749,9.029l0,26.806l14.055,-0c4.468,-0 8.315,-1.862 11.541,-5.585c1.8,-2.482 2.7,-4.995 2.7,-7.539l-0,-0.651c-0,-4.034 -1.955,-7.509 -5.864,-10.425c-2.42,-1.799 -5.771,-2.699 -10.052,-2.699l-12.194,-0c-0.062,-0 -0.124,0.031 -0.186,0.093Z" style="fill-rule:nonzero;"/><path d="M574.701,76.763l8.656,0c0,0 0.031,0.031 0.093,0.094l0,34.996c0.559,-0.558 10.642,-12.193 30.25,-34.903c0.062,-0.062 0.124,-0.124 0.186,-0.187l11.728,0c-0,0 0.031,0.031 0.093,0.094c-4.716,5.46 -14.148,16.35 -28.295,32.669c4.778,5.895 14.334,17.654 28.667,35.276l0,0.093l-11.913,0c-3.786,-4.777 -11.356,-14.24 -22.711,-28.388c-1.365,1.551 -4.033,4.623 -8.005,9.215l0,19.08c0,0 -0.031,0.031 -0.093,0.093l-8.656,0c-0.062,0 -0.124,-0.031 -0.186,-0.093l-0,-67.945c-0,-0 0.062,-0.031 0.186,-0.094Z" style="fill-rule:nonzero;"/></svg>